PathFileType	4	(X/Y/Z)	Walk10.trc
DataRate	CameraRate	NumFrames	NumMarkers	Units	OrigDataRate	OrigDataStartFrame	OrigNumFrames
200.000000	200.000000	4	59	mm	200.000000	381	536
Frame#	Times		C7		T10		RBack		LPSI		RPSI		RCAR		LElbowM		LLFC		LTH1		LBHD		RWRR		LUA1		CLAV		RUA1		RElbowM		RFA1		LFA1		RTH3		LCAR		LWRU		RTH4		RTH2		RACR1		LACR1		STRN		RTB4		LWRR		RTB3		RMT1		RWRU		RTB1		RToe		RCAL		RFHD		RLFC		RMT5		RBHD		LFHD		RTB2		LElbow		LTB3		LTH4		LTH3		RTH1		RMMAL		RLMAL		LTH2		RElbow		LTB2		LCAL		LMT1		LLMAL		RASI		LASI		LTB4		LMT5		LMMAL		LToe		LTB1
			X1	Y1	Z1	X2	Y2	Z2	X3	Y3	Z3	X4	Y4	Z4	X5	Y5	Z5	X6	Y6	Z6	X7	Y7	Z7	X8	Y8	Z8	X9	Y9	Z9	X10	Y10	Z10	X11	Y11	Z11	X12	Y12	Z12	X13	Y13	Z13	X14	Y14	Z14	X15	Y15	Z15	X16	Y16	Z16	X17	Y17	Z17	X18	Y18	Z18	X19	Y19	Z19	X20	Y20	Z20	X21	Y21	Z21	X22	Y22	Z22	X23	Y23	Z23	X24	Y24	Z24	X25	Y25	Z25	X26	Y26	Z26	X27	Y27	Z27	X28	Y28	Z28	X29	Y29	Z29	X30	Y30	Z30	X31	Y31	Z31	X32	Y32	Z32	X33	Y33	Z33	X34	Y34	Z34	X35	Y35	Z35	X36	Y36	Z36	X37	Y37	Z37	X38	Y38	Z38	X39	Y39	Z39	X40	Y40	Z40	X41	Y41	Z41	X42	Y42	Z42	X43	Y43	Z43	X44	Y44	Z44	X45	Y45	Z45	X46	Y46	Z46	X47	Y47	Z47	X48	Y48	Z48	X49	Y49	Z49	X50	Y50	Z50	X51	Y51	Z51	X52	Y52	Z52	X53	Y53	Z53	X54	Y54	Z54	X55	Y55	Z55	X56	Y56	Z56	X57	Y57	Z57	X58	Y58	Z58	X59	Y59	Z59

381	1.905	302.13	1357.8	36.674	286.77	1092.9	27.877	293.14	1259	165.46	261.78	903.78	-12.425	263.01	909.77	87.177	492.76	754.16	321.03	331.12	980.41	-169.53	479.12	462.62	-137.65	435.39	753.45	-169.83	305.37	1488.8	-31.005	510.91	794.65	273.85	385.94	1131.6	-218.76	431.48	1288.6	33.458	410.93	1147.8	262.3	345.2	966.96	223.76	406.98	878.44	304.84	382.89	895.98	-271.5	432.73	555	179.26	469.13	741.28	-305.08	415.27	776.56	-293.47	425.1	647.45	203.32	490.76	665.31	167.32	390.3	1304.4	185.49	379.08	1303.2	-132.38	499.2	1185.7	25.948	457.61	239.52	75.089	479.14	780.68	-255.97	461.29	145.99	70.273	520.24	44.072	47.321	441.01	771.88	290.05	466.59	331.33	73.469	578.24	23.12	47.361	369.61	38.035	100.35	483.74	1533	58.332	452.53	456.39	159.84	506.34	31.493	105.32	309.2	1495.7	92.334	475.51	1523.3	-17.897	442.77	238.76	145.18	355.4	1013.4	-235.9	326.5	218.89	-35.26	464.73	665.01	-155.11	488.09	574.16	-143.41	421.94	733.7	227.87	424.09	70.548	38.586	430.57	62.766	118.39	526.46	690.72	-124.11	393.9	1005.4	299.73	352.14	310.62	-106.77	174.51	187.43	-1.8006	288.99	93.663	-42.093	215.64	187.54	-57.05	486.28	882.06	175.66	455.05	876.53	-137.49	385.23	288.34	-47.484	246	103.65	-84.374	252.36	167.46	11.536	303.89	49.302	-71.135	456.96	343.97	-63.753
382	1.91	307.78	1358.1	36.673	292.26	1093.1	28.167	298.76	1259.4	165.58	267.34	904.03	-12.259	268.42	910.15	87.359	501.82	755.38	320.86	336.05	980.62	-169.32	489.78	463.85	-136.99	442.55	754.11	-169.55	311.11	1489.1	-31.152	519.48	796.02	273.59	390.38	1131.8	-218.76	437.09	1288.8	33.362	416.95	1148.3	262.44	352.28	967.05	224.05	414.97	878.95	305.02	387.08	896.26	-271.73	435.52	555.05	179.33	472.83	741.44	-305.99	419.1	776.75	-293.91	429.04	647.59	203.41	494.54	664.75	166.87	395.99	1304.7	185.41	384.32	1303.3	-132.37	504.75	1185.8	25.658	458.15	239.42	75.132	483.25	780.78	-256.92	461.62	145.89	70.204	520.26	43.835	47.102	449.81	772.73	290.11	467.47	331.21	73.557	578.32	23.109	47.07	369.68	38.187	100.26	489.48	1533.1	58.269	453.98	456.29	159.94	506.38	31.454	105.22	314.88	1495.9	92.182	481.28	1523.4	-17.959	443.37	238.67	145.2	359.88	1013.6	-235.79	341.41	217.27	-34.722	472.96	666.04	-154.74	497.41	575.53	-142.93	426.93	733.83	228.08	424.19	70.545	38.42	430.67	62.759	118.22	534.28	692.54	-123.6	400.89	1005.8	299.98	365.42	309.42	-106.26	189.83	182.2	-1.7185	307.45	92.144	-41.769	231.36	183.46	-56.855	489.84	882.43	175.77	460.59	876.86	-137.44	398.82	287.89	-46.857	264.29	100.7	-84.115	268.28	164.37	11.89	323.96	48.417	-70.894	469.51	344.85	-63.067
383	1.915	313.42	1358.3	36.663	297.73	1093.3	28.426	304.38	1259.7	165.69	272.88	904.18	-12.133	273.82	910.46	87.509	510.85	756.55	320.68	341	980.76	-169.09	500.31	465.02	-136.29	449.71	754.7	-169.28	316.85	1489.3	-31.315	528.01	797.33	273.31	394.85	1131.9	-218.77	442.69	1288.9	33.262	422.94	1148.7	262.57	359.36	967.07	224.3	422.92	879.39	305.17	391.25	896.47	-271.97	438.31	555.1	179.4	476.52	741.53	-306.92	422.91	776.88	-294.37	433	647.69	203.49	498.35	664.14	166.43	401.67	1304.9	185.32	389.58	1303.3	-132.35	510.29	1185.9	25.375	458.69	239.34	75.179	487.34	780.81	-257.88	461.95	145.8	70.139	520.29	43.603	46.894	458.59	773.54	290.15	468.36	331.1	73.64	578.42	23.099	46.809	369.75	38.341	100.17	495.23	1533.2	58.188	455.42	456.18	160.05	506.42	31.416	105.12	320.57	1496.1	92.014	487.05	1523.5	-18.04	443.98	238.58	145.23	364.35	1013.8	-235.68	356.48	215.52	-34.196	481.15	667	-154.37	506.63	576.83	-142.42	431.96	733.92	228.3	424.29	70.547	38.257	430.78	62.756	118.05	542.03	694.27	-123.05	407.84	1006.1	300.21	378.77	308.07	-105.77	205.43	176.71	-1.6953	326.13	90.489	-41.385	247.32	179.14	-56.702	493	882.74	175.87	466.19	877.14	-137.38	412.47	287.35	-46.229	282.86	97.558	-83.832	284.42	161.09	12.219	344.25	47.454	-70.535	482.01	345.69	-62.332
384	1.92	319.07	1358.4	36.647	303.18	1093.4	28.649	310	1259.9	165.79	278.41	904.24	-12.048	279.2	910.7	87.627	519.84	757.67	320.47	345.96	980.84	-168.87	510.73	466.14	-135.56	456.84	755.2	-169.04	322.6	1489.4	-31.49	536.51	798.59	273.02	399.34	1131.9	-218.78	448.29	1288.9	33.16	428.91	1149	262.69	366.42	967.03	224.52	430.83	879.77	305.3	395.41	896.61	-272.21	441.1	555.12	179.47	480.19	741.54	-307.85	426.7	776.94	-294.84	436.98	647.77	203.57	502.18	663.5	165.99	407.35	1305.1	185.22	394.85	1303.2	-132.34	515.83	1185.9	25.101	459.24	239.28	75.231	491.42	780.77	-258.85	462.27	145.71	70.08	520.32	43.38	46.698	467.34	774.3	290.14	469.24	331	73.717	578.52	23.092	46.582	369.81	38.495	100.08	500.97	1533.2	58.09	456.85	456.08	160.17	506.46	31.379	105.02	326.26	1496.2	91.832	492.83	1523.5	-18.14	444.6	238.51	145.26	368.82	1013.9	-235.58	371.71	213.66	-33.682	489.27	667.88	-153.98	515.76	578.06	-141.88	437.01	733.97	228.51	424.39	70.557	38.097	430.9	62.757	117.87	549.71	695.91	-122.49	414.73	1006.4	300.43	392.19	306.59	-105.29	221.31	170.99	-1.7233	345.02	88.723	-40.955	263.54	174.61	-56.588	495.75	883.01	175.94	471.83	877.35	-137.3	426.17	286.7	-45.604	301.7	94.251	-83.532	300.78	157.65	12.522	364.75	46.436	-70.082	494.45	346.49	-61.552
